<?xml version="1.0" encoding="UTF-8"?>
<svg version="1.1" xmlns="http://www.w3.org/2000/svg" width="500" height="500">
<path d="M0 0 C8.58 0 17.16 0 26 0 C26.99 2.330625 27.98 4.66125 29 7.0625 C31.63854954 13.1652338 34.53229009 19.01534558 37.72753906 24.84643555 C40.9367112 30.75980265 43.85353277 36.80333613 46.75 42.875 C47.20987305 43.83801025 47.66974609 44.80102051 48.14355469 45.79321289 C50.23772063 50.20384972 52.30729682 54.62555597 54.328125 59.0703125 C54.81394043 60.13789795 54.81394043 60.13789795 55.30957031 61.22705078 C56 63 56 63 56 65 C48.27214866 65.96953382 40.65666099 66.12131488 32.875 66.0625 C31.15410156 66.05573242 31.15410156 66.05573242 29.3984375 66.04882812 C26.59893532 66.03716353 23.79946041 66.01923293 21 66 C18.36 60.72 15.72 55.44 13 50 C9.85637198 51.57181401 9.27374441 54.75886212 8 57.875 C4.58239365 65.97400541 0.5870018 73.6900423 -3.5703125 81.4296875 C-6.14963727 86.23555471 -8.58398353 91.11041241 -11 96 C4.34956659 87.03893256 4.34956659 87.03893256 19 77 C17.68 75.02 16.36 73.04 15 71 C19.89496614 66.10503386 40.82693273 68.60798152 47.8125 68.4375 C49.48763803 68.39418166 51.16276834 68.3505638 52.83789062 68.30664062 C56.89184661 68.20098232 60.94588467 68.09934835 65 68 C64.31190758 70.90839285 63.43858155 73.34130659 62.0625 76 C61.55396484 76.99 61.55396484 76.99 61.03515625 78 C60.69355469 78.66 60.35195312 79.32 60 80 C59.33148341 81.33240677 58.66428253 82.66547726 58 84 C57.34 84 56.68 84 56 84 C55.9071875 84.86238281 55.814375 85.72476563 55.71875 86.61328125 C54.91433926 90.4036297 53.53215487 92.90190535 51.5 96.1875 C48.88923065 100.4249261 48.88923065 100.4249261 47 105 C46.34 105 45.68 105 45 105 C44.67 106.65 44.34 108.3 44 110 C42.68 110.33 41.36 110.66 40 111 C39.67 109.68 39.34 108.36 39 107 C34.59426259 108.18202711 31.55629831 109.89957806 27.98510742 112.59960938 C26.06404099 113.9548224 24.14355085 115.05119926 22.06640625 116.1484375 C15.90720187 119.52630853 10.10093183 123.43374452 4.25 127.3125 C-2.39932466 131.71001436 -9.0542931 136.05481532 -15.8828125 140.16796875 C-19.41587549 142.31489831 -22.67936903 144.42826012 -25.7578125 147.1875 C-39.31305245 158.89057053 -57.2186014 155.99532974 -74 155 C-73.67 153.02 -73.34 151.04 -73 149 C-72.34 149 -71.68 149 -71 149 C-70.89042969 148.29875 -70.78085938 147.5975 -70.66796875 146.875 C-69.91583271 143.63773611 -68.74521687 141.00257036 -67.3125 138 C-67.01923828 137.38261963 -66.72597656 136.76523926 -66.42382812 136.12915039 C-65.28956246 133.74935671 -64.14471736 131.37478458 -63 129 C-62.18478138 127.30164877 -61.36956988 125.60329412 -60.55448914 123.90487671 C-59.03865068 120.74796485 -57.51970059 117.59255417 -56 114.4375 C-55.7073526 113.8297876 -55.4147052 113.2220752 -55.1131897 112.59594727 C-51.90190223 105.93310624 -48.65804218 99.289773 -45.33984375 92.6796875 C-42.68063592 87.3787032 -40.08392948 82.05518369 -37.5625 76.6875 C-37.18617432 75.89045654 -36.80984863 75.09341309 -36.42211914 74.2722168 C-34.58334849 70.37528769 -32.75322294 66.47439173 -30.9296875 62.5703125 C-26.13775006 52.32170062 -21.14572302 42.18759316 -16.03515625 32.09448242 C-13.02122146 26.11203034 -10.18204246 20.05130794 -7.35546875 13.97851562 C-6.98035156 13.17994141 -6.60523438 12.38136719 -6.21875 11.55859375 C-5.7227832 10.49596313 -5.7227832 10.49596313 -5.21679688 9.41186523 C-3.60111806 6.20935902 -1.77964312 3.11437545 0 0 Z " fill="#F6F6F6" transform="translate(166,138)"/>
<path d="M0 0 C3 1 3 1 3.88671875 2.72265625 C4.15097656 3.49480469 4.41523438 4.26695312 4.6875 5.0625 C6.46956175 9.83514813 8.57650428 14.33672335 10.875 18.875 C11.21942139 19.55570557 11.56384277 20.23641113 11.91870117 20.93774414 C12.60972532 22.29988239 13.30185214 23.66146184 13.99511719 25.02246094 C15.51193419 28.00745067 17.0054434 31.0038036 18.5 34 C19.325 35.65 20.15 37.3 21 39 C21.33 31.41 21.66 23.82 22 16 C34.87 16 47.74 16 61 16 C61 29 61 29 58.15625 32.67578125 C56.96840883 33.59603182 55.74804474 34.47571324 54.5 35.3125 C53.87996094 35.77849609 53.25992188 36.24449219 52.62109375 36.72460938 C51.10786243 37.85371275 49.55733116 38.93254362 48 40 C48.4640625 40.8971875 48.4640625 40.8971875 48.9375 41.8125 C50 44 50 44 51 47 C51.66 47 52.32 47 53 47 C54.60634015 48.73391951 56.1375287 50.538091 57.625 52.375 C58.44226563 53.37273437 59.25953125 54.37046875 60.1015625 55.3984375 C62 58 62 58 62 60 C50.88552453 61.21988145 50.88552453 61.21988145 46.35546875 58.2890625 C44.3436482 56.28086685 42.57343993 54.36729029 41 52 C41 51.34 41 50.68 41 50 C40.34 50 39.68 50 39 50 C39 49.34 39 48.68 39 48 C37.35 48.66 35.7 49.32 34 50 C34 50.66 34 51.32 34 52 C33.34 52 32.68 52 32 52 C32 52.66 32 53.32 32 54 C31.01 54.495 31.01 54.495 30 55 C31.51516051 63.32602764 34.17861411 69.05472412 41.10717773 74.11987305 C61.55899217 88.10827075 85.22308587 100.13236028 110.4375 100.3125 C111.18306152 100.31813965 111.92862305 100.3237793 112.69677734 100.32958984 C118.76837935 100.24914419 124.20139101 98.960796 129.75 96.4375 C133 95 133 95 136 94 C136 93.34 136 92.68 136 92 C136.66 92 137.32 92 138 92 C138 91.34 138 90.68 138 90 C138.66 90 139.32 90 140 90 C143.29631565 82.46556424 146.2687978 72.90743578 143.171875 64.84375 C141.75939574 62.27177284 140.6738964 60.3369482 138 59 C135.45384991 58.76827173 132.92603775 58.58105471 130.375 58.4375 C129.66859375 58.39431641 128.9621875 58.35113281 128.234375 58.30664062 C126.48981463 58.20055249 124.74493303 58.09977111 123 58 C125.41798762 55.40406524 126.6828238 54.10149638 130.125 53 C133.00933479 52.3045556 133.00933479 52.3045556 134.140625 50.421875 C135.32778222 47.07625011 135.46561104 43.76319841 135.625 40.25 C135.68300781 39.20392578 135.68300781 39.20392578 135.7421875 38.13671875 C135.83598624 36.42489182 135.91906174 34.71248318 136 33 C136.66 33 137.32 33 138 33 C138.33 34.65 138.66 36.3 139 38 C139.66 38 140.32 38 141 38 C141.2475 38.969375 141.495 39.93875 141.75 40.9375 C142.36875 42.4534375 142.36875 42.4534375 143 44 C146.30053023 45.34466047 149.73239137 45.10073488 153.25 45.0625 C154.32765625 45.05347656 155.4053125 45.04445313 156.515625 45.03515625 C157.33546875 45.02355469 158.1553125 45.01195312 159 45 C159.33 45.99 159.66 46.98 160 48 C153.25 52 153.25 52 151 52 C151 52.66 151 53.32 151 54 C150.34 54 149.68 54 149 54 C148.6406421 62.13213617 149.3370627 69.18843978 151.3203125 77.07421875 C153.36282772 85.86642507 150.78554718 93.64335846 148 102 C147.34 102 146.68 102 146 102 C145.73316406 102.59683594 145.46632813 103.19367188 145.19140625 103.80859375 C142.39890673 108.94496171 137.76155692 111.97816401 132.3125 113.8125 C130.88167903 114.23183474 129.44409953 114.62896519 128 115 C127.41089844 115.18433594 126.82179688 115.36867188 126.21484375 115.55859375 C102.0083046 120.38282466 74.83323391 109.32889497 54.89453125 96.39453125 C50.85848366 93.69326225 46.91458321 90.87373429 43 88 C42.35208496 87.52643066 41.70416992 87.05286133 41.03662109 86.56494141 C39.18197523 85.20080365 37.33818349 83.8237213 35.5 82.4375 C34.94159424 82.02000488 34.38318848 81.60250977 33.80786133 81.17236328 C32.49920912 80.16403346 31.24330126 79.0878886 30 78 C30 77.34 30 76.68 30 76 C29.34 76 28.68 76 28 76 C28 75.34 28 74.68 28 74 C27.23333008 74.0314209 26.46666016 74.0628418 25.67675781 74.09521484 C22.20147232 74.21997138 18.72665729 74.29798544 15.25 74.375 C14.0434375 74.42527344 12.836875 74.47554688 11.59375 74.52734375 C2.70089149 74.67555806 2.70089149 74.67555806 -0.59375 71.5 C-1.0578125 70.345 -1.521875 69.19 -2 68 C-2.61784588 66.67877584 -3.23775035 65.35851299 -3.859375 64.0390625 C-4.84326792 61.77441243 -5.80124998 59.50111236 -6.74511719 57.21948242 C-8.44083751 53.20992694 -10.15611269 49.60510464 -12.71875 46.07421875 C-15.38620569 42.23698348 -17.7739509 38.78520829 -18 34 C-15.99209447 26.60471345 -11.73774408 20.13288341 -7.66259766 13.71972656 C-5.52168255 10.21755413 -3.72412105 6.59331263 -1.9519043 2.89404297 C-1 1 -1 1 0 0 Z M33 26 C32.896875 27.5675 32.79375 29.135 32.6875 30.75 C32.42087807 34.80265337 31.6815279 36.92307254 29 40 C32.30708075 38.45463516 35.24726899 36.57205999 38.25 34.5 C39.58804688 33.58734375 39.58804688 33.58734375 40.953125 32.65625 C41.62859375 32.1096875 42.3040625 31.563125 43 31 C43 30.34 43 29.68 43 29 C44.32 28.34 45.64 27.68 47 27 C47 26.67 47 26.34 47 26 C42.38 26 37.76 26 33 26 Z M25 42 C24.01 42.495 24.01 42.495 23 43 C23 43.66 23 44.32 23 45 C23.99 44.67 24.98 44.34 26 44 C25.67 43.34 25.34 42.68 25 42 Z " fill="#EBEAEA" transform="translate(229,219)"/>
<path d="M0 0 C1.97909398 -0.02686553 3.95828971 -0.04633375 5.9375 -0.0625 C7.03964844 -0.07410156 8.14179688 -0.08570313 9.27734375 -0.09765625 C12 0 12 0 13 1 C13.23653523 3.52596259 13.42173692 6.03107207 13.5625 8.5625 C13.60568359 9.27341797 13.64886719 9.98433594 13.69335938 10.71679688 C13.79971777 12.47761912 13.90038846 14.2387832 14 16 C15.14597656 15.95617187 16.29195313 15.91234375 17.47265625 15.8671875 C29.50066234 15.75999546 29.50066234 15.75999546 33.6875 19.22265625 C38 25.46679688 38 25.46679688 38 29 C33.9799737 29.09941096 29.96043037 29.17172063 25.93945312 29.21972656 C24.57376632 29.23975319 23.20816431 29.26698332 21.84277344 29.30175781 C19.87212898 29.35066432 17.90084017 29.37091347 15.9296875 29.390625 C14.74616699 29.41157227 13.56264648 29.43251953 12.34326172 29.45410156 C7.46537723 28.79155847 4.36198717 26.53901694 1.13671875 22.89453125 C-0.58338816 18.5144652 -0.31583345 14.34370096 -0.1875 9.6875 C-0.17396484 8.75615234 -0.16042969 7.82480469 -0.14648438 6.86523438 C-0.11126882 4.57622354 -0.06202099 2.28841542 0 0 Z " fill="#F0EFEF" transform="translate(291,251)"/>
<path d="M0 0 C0.66 0 1.32 0 2 0 C2.33 1.65 2.66 3.3 3 5 C3.66 5 4.32 5 5 5 C5.2475 5.969375 5.495 6.93875 5.75 7.9375 C6.1625 8.948125 6.575 9.95875 7 11 C10.30053023 12.34466047 13.73239137 12.10073488 17.25 12.0625 C18.86648438 12.04896484 18.86648438 12.04896484 20.515625 12.03515625 C21.74539063 12.01775391 21.74539063 12.01775391 23 12 C23.495 13.485 23.495 13.485 24 15 C17.25 19 17.25 19 15 19 C15 19.66 15 20.32 15 21 C14.34 21 13.68 21 13 21 C13 26.28 13 31.56 13 37 C12.67 36.34 12.34 35.68 12 35 C11.34 35 10.68 35 10 35 C10 37.97 10 40.94 10 44 C9.67 44 9.34 44 9 44 C8.97421875 43.35933594 8.9484375 42.71867187 8.921875 42.05859375 C8.52155373 35.95369442 7.52879454 32.0258589 4 27 C0.95786733 25.47893366 -2.28047572 25.62570662 -5.625 25.4375 C-6.33140625 25.39431641 -7.0378125 25.35113281 -7.765625 25.30664062 C-9.51018537 25.20055249 -11.25506697 25.09977111 -13 25 C-10.58201238 22.40406524 -9.3171762 21.10149638 -5.875 20 C-2.99066521 19.3045556 -2.99066521 19.3045556 -1.859375 17.421875 C-0.67221778 14.07625011 -0.53438896 10.76319841 -0.375 7.25 C-0.31699219 6.20392578 -0.31699219 6.20392578 -0.2578125 5.13671875 C-0.16401376 3.42489182 -0.08093826 1.71248318 0 0 Z " fill="#E4E0DE" transform="translate(365,252)"/>
<path d="M0 0 C4.39515007 -0.20349988 8.78908989 -0.3277078 13.1875 -0.4375 C15.05631836 -0.52547852 15.05631836 -0.52547852 16.96289062 -0.61523438 C25.97806052 -0.78441987 25.97806052 -0.78441987 28.97900391 1.51904297 C30.72446853 3.89373681 32 5.99115764 32 9 C32.66 9 33.32 9 34 9 C34 10.32 34 11.64 34 13 C29.81370201 13.26273837 25.62952953 13.42164781 21.4375 13.5625 C20.25607422 13.63791016 19.07464844 13.71332031 17.85742188 13.79101562 C9.25362556 14.00791805 9.25362556 14.00791805 5.63330078 11.09716797 C2.82230959 7.59222904 0.85918695 4.44220641 0 0 Z " fill="#E0DCDB" transform="translate(295,235)"/>
<path d="M0 0 C9.9 0 19.8 0 30 0 C30 2.31 30 4.62 30 7 C31.98 7 33.96 7 36 7 C36 5.02 36 3.04 36 1 C37.32 0.67 38.64 0.34 40 0 C40.02687279 1.81242052 40.04633715 3.62495233 40.0625 5.4375 C40.07410156 6.44683594 40.08570313 7.45617187 40.09765625 8.49609375 C40 11 40 11 39 12 C37.19072719 12.12487758 35.37603893 12.17570846 33.5625 12.1875 C32.07943359 12.20876953 32.07943359 12.20876953 30.56640625 12.23046875 C28 12 28 12 26 10 C25.875 6.375 25.875 6.375 26 3 C24.35 3 22.7 3 21 3 C21 5.97 21 8.94 21 12 C19.68 11.67 18.36 11.34 17 11 C17 8.36 17 5.72 17 3 C15.02 3.33 13.04 3.66 11 4 C11.33 4.33 11.66 4.66 12 5 C12.125 8 12.125 8 12 11 C11 12 11 12 8.27734375 12.09765625 C6.62412109 12.08025391 6.62412109 12.08025391 4.9375 12.0625 C3.83277344 12.05347656 2.72804688 12.04445313 1.58984375 12.03515625 C0.30787109 12.01775391 0.30787109 12.01775391 -1 12 C-1.02698189 10.37509046 -1.04638757 8.75005367 -1.0625 7.125 C-1.07410156 6.22007812 -1.08570313 5.31515625 -1.09765625 4.3828125 C-1 2 -1 2 0 0 Z " fill="#625F5E" transform="translate(289,285)"/>
<path d="M0 0 C4.23582327 -0.04938628 8.47149465 -0.08571263 12.70751953 -0.10986328 C14.14895547 -0.11992963 15.59037095 -0.1335838 17.03173828 -0.15087891 C19.10193934 -0.17510012 21.17187076 -0.18647641 23.2421875 -0.1953125 C25.11173096 -0.21102295 25.11173096 -0.21102295 27.01904297 -0.22705078 C30 0 30 0 32 2 C32.31537716 6.33643601 32.44897847 8.32653229 30 12 C27.25254867 12.22204617 24.73768639 12.28083022 22 12.1875 C20.89398438 12.16719727 20.89398438 12.16719727 19.765625 12.14648438 C17.84348263 12.109655 15.92168199 12.05591101 14 12 C13.34 12 12.68 12 12 12 C8 12 4 12 0 12 C0 8.04 0 4.08 0 0 Z M3 3 C3.33 4.65 3.66 6.3 4 8 C5.98 8 7.96 8 10 8 C10 6.35 10 4.7 10 3 C7.69 3 5.38 3 3 3 Z M21 3 C21.66 4.65 22.32 6.3 23 8 C24.65 8 26.3 8 28 8 C28 6.35 28 4.7 28 3 C25.69 3 23.38 3 21 3 Z M17 8 C18 10 18 10 18 10 Z " fill="#C2BFBE" transform="translate(330,285)"/>
<path d="M0 0 C0.99 0 1.98 0 3 0 C3 1.32 3 2.64 3 4 C5.31 4 7.62 4 10 4 C10 2.68 10 1.36 10 0 C10.639375 0.185625 11.27875 0.37125 11.9375 0.5625 C12.9584375 0.7790625 12.9584375 0.7790625 14 1 C14.33 0.67 14.66 0.34 15 0 C19.00220653 -0.14355117 22.99441683 -0.04216403 27 0 C27 3.96 27 7.92 27 12 C21.39 12 15.78 12 10 12 C10 10.68 10 9.36 10 8 C7.69 8 5.38 8 3 8 C3 9.32 3 10.64 3 12 C1.68 12 0.36 12 -1 12 C-0.67 8.04 -0.34 4.08 0 0 Z " fill="#CAC2C1" transform="translate(268,216)"/>
<path d="M0 0 C2.62527189 -0.05382106 5.24944713 -0.09358313 7.875 -0.125 C8.62136719 -0.14175781 9.36773437 -0.15851563 10.13671875 -0.17578125 C12.09194461 -0.1933959 14.04742021 -0.10320189 16 0 C18 2 18 2 18.25 5.4375 C18 9 18 9 16 12 C13.3984375 12.29296875 13.3984375 12.29296875 10.375 12.1875 C8.87066406 12.14689453 8.87066406 12.14689453 7.3359375 12.10546875 C6.56507813 12.07066406 5.79421875 12.03585937 5 12 C2.87000003 8.20960634 2.83297544 5.34263862 3 1 C2.01 0.67 1.02 0.34 0 0 Z M7 3 C7.66 4.65 8.32 6.3 9 8 C10.65 8 12.3 8 14 8 C14 6.35 14 4.7 14 3 C11.69 3 9.38 3 7 3 Z " fill="#8E8888" transform="translate(344,285)"/>
<path d="M0 0 C1.51400391 0.01740234 1.51400391 0.01740234 3.05859375 0.03515625 C4.07050781 0.04417969 5.08242188 0.05320312 6.125 0.0625 C7.29869141 0.07990234 7.29869141 0.07990234 8.49609375 0.09765625 C8.49609375 0.42765625 8.49609375 0.75765625 8.49609375 1.09765625 C6.18609375 1.09765625 3.87609375 1.09765625 1.49609375 1.09765625 C1.49609375 1.75765625 1.49609375 2.41765625 1.49609375 3.09765625 C3.19765625 3.06671875 3.19765625 3.06671875 4.93359375 3.03515625 C8.49609375 3.09765625 8.49609375 3.09765625 9.49609375 4.09765625 C9.62109375 7.09765625 9.62109375 7.09765625 9.49609375 10.09765625 C8.49609375 11.09765625 8.49609375 11.09765625 5.7734375 11.1953125 C4.12021484 11.17791016 4.12021484 11.17791016 2.43359375 11.16015625 C1.32886719 11.15113281 0.22414063 11.14210938 -0.9140625 11.1328125 C-2.19603516 11.11541016 -2.19603516 11.11541016 -3.50390625 11.09765625 C-3.53078776 9.45191059 -3.55024748 7.80604212 -3.56640625 6.16015625 C-3.57800781 5.24363281 -3.58960938 4.32710938 -3.6015625 3.3828125 C-3.46380636 0.15931892 -3.23579438 0.12620103 0 0 Z " fill="#ADAAA9" transform="translate(291.50390625,285.90234375)"/>
<path d="M0 0 C0.99 0 1.98 0 3 0 C3.02687279 1.81242052 3.04633715 3.62495233 3.0625 5.4375 C3.07410156 6.44683594 3.08570313 7.45617187 3.09765625 8.49609375 C3 11 3 11 2 12 C0.16884117 12.09851171 -1.66619933 12.12972629 -3.5 12.125 C-4.5003125 12.12757813 -5.500625 12.13015625 -6.53125 12.1328125 C-9 12 -9 12 -10 11 C-10.07205511 9.31391034 -10.08386068 7.62499341 -10.0625 5.9375 C-10.05347656 5.01839844 -10.04445313 4.09929687 -10.03515625 3.15234375 C-10.02355469 2.44207031 -10.01195312 1.73179687 -10 1 C-9.34 1 -8.68 1 -8 1 C-8 3.64 -8 6.28 -8 9 C-7.401875 8.690625 -6.80375 8.38125 -6.1875 8.0625 C-4 7 -4 7 -1 6 C-1.020625 5.195625 -1.04125 4.39125 -1.0625 3.5625 C-1 1 -1 1 0 0 Z " fill="#B9B9B8" transform="translate(326,285)"/>
<path d="M0 0 C0.99 0 1.98 0 3 0 C3 1.32 3 2.64 3 4 C5.31 4 7.62 4 10 4 C10 3.01 10 2.02 10 1 C10.66 1 11.32 1 12 1 C12 4.63 12 8.26 12 12 C11.34 12 10.68 12 10 12 C10 10.68 10 9.36 10 8 C7.69 8 5.38 8 3 8 C3 9.32 3 10.64 3 12 C1.68 12 0.36 12 -1 12 C-0.67 8.04 -0.34 4.08 0 0 Z " fill="#CBC0BF" transform="translate(268,216)"/>
<path d="M0 0 C3.96 0 7.92 0 12 0 C12 1.32 12 2.64 12 4 C10.68 4 9.36 4 8 4 C8 6.64 8 9.28 8 12 C6.68 12 5.36 12 4 12 C4 9.36 4 6.72 4 4 C2.35 3.67 0.7 3.34 -1 3 C-0.67 2.01 -0.34 1.02 0 0 Z " fill="#C2BEBC" transform="translate(255,216)"/>
<path d="M0 0 C0.66 0 1.32 0 2 0 C1.67 1.32 1.34 2.64 1 4 C1.95890137 3.9592334 2.91780273 3.9184668 3.90576172 3.87646484 C7.45747939 3.72819226 11.00960341 3.59347712 14.56201172 3.46289062 C16.10056868 3.40442741 17.6389898 3.34226915 19.17724609 3.27636719 C21.38614165 3.18237163 23.59518213 3.10159914 25.8046875 3.0234375 C26.83914505 2.97514297 26.83914505 2.97514297 27.89450073 2.9258728 C29.59566977 2.87229752 31.29953998 2.9273218 33 3 C33.66 3.66 34.32 4.32 35 5 C34 6 34 6 30.67358398 6.11352539 C29.19774444 6.11336629 27.72189931 6.10767314 26.24609375 6.09765625 C25.47064713 6.0962413 24.6952005 6.09482635 23.89625549 6.09336853 C21.40996506 6.08775345 18.9237634 6.07519846 16.4375 6.0625 C14.75586067 6.05748694 13.07421994 6.0529237 11.39257812 6.04882812 C7.26168434 6.03777913 3.13085724 6.02050445 -1 6 C-0.67 4.02 -0.34 2.04 0 0 Z " fill="#9C9897" transform="translate(93,287)"/>
<path d="M0 0 C0.99 0 1.98 0 3 0 C4.60725635 3.21451269 4.05748185 6.43612536 4 10 C4.66 10 5.32 10 6 10 C6 9.01 6 8.02 6 7 C9.3 7 12.6 7 16 7 C16.33 6.34 16.66 5.68 17 5 C17 7.31 17 9.62 17 12 C12.05 12 7.1 12 2 12 C2 8.37 2 4.74 2 1 C1.34 0.67 0.68 0.34 0 0 Z " fill="#A49A9A" transform="translate(278,216)"/>
<path d="M0 0 C1.81242052 -0.02687279 3.62495233 -0.04633715 5.4375 -0.0625 C6.44683594 -0.07410156 7.45617187 -0.08570313 8.49609375 -0.09765625 C11 0 11 0 12 1 C12.23728814 7.52542373 12.23728814 7.52542373 11 10 C8.69 10 6.38 10 4 10 C4.474375 9.608125 4.94875 9.21625 5.4375 8.8125 C7.35179633 6.59191626 7.61266988 4.86624291 8 2 C5.69 2 3.38 2 1 2 C0.67 2.66 0.34 3.32 0 4 C0 2.68 0 1.36 0 0 Z " fill="#CDC9C7" transform="translate(350,286)"/>
<path d="M0 0 C4.29 0 8.58 0 13 0 C10 3 10 3 6.3125 3.1875 C4.6728125 3.0946875 4.6728125 3.0946875 3 3 C3.33 4.65 3.66 6.3 4 8 C5.98 8 7.96 8 10 8 C10.33 7.34 10.66 6.68 11 6 C11 6.99 11 7.98 11 9 C10.06027344 8.98259766 10.06027344 8.98259766 9.1015625 8.96484375 C7.87566406 8.95130859 7.87566406 8.95130859 6.625 8.9375 C5.40683594 8.92009766 5.40683594 8.92009766 4.1640625 8.90234375 C1.95062858 8.85533666 1.95062858 8.85533666 0 10 C0 6.7 0 3.4 0 0 Z " fill="#A19B9A" transform="translate(330,285)"/>
<path d="M0 0 C0 0.99 0 1.98 0 3 C0.99 3.33 1.98 3.66 3 4 C3 4.33 3 4.66 3 5 C-1.29 5 -5.58 5 -10 5 C-5 0 -5 0 0 0 Z " fill="#B6AFAC" transform="translate(362,272)"/>
<path d="M0 0 C1.47968324 0.14049518 2.95874516 0.28754826 4.4375 0.4375 C5.67306641 0.55931641 5.67306641 0.55931641 6.93359375 0.68359375 C9 1 9 1 10 2 C10 3.98 10 5.96 10 8 C6.04 8 2.08 8 -2 8 C-2 7.34 -2 6.68 -2 6 C5.75 4.875 5.75 4.875 8 6 C8 5.01 8 4.02 8 3 C5.36 2.67 2.72 2.34 0 2 C0 1.34 0 0.68 0 0 Z " fill="#BAB6B7" transform="translate(291,288)"/>
<path d="M0 0 C0.66 0 1.32 0 2 0 C2 2.64 2 5.28 2 8 C3.32 7.34 4.64 6.68 6 6 C7.32 6.99 8.64 7.98 10 9 C9 10 9 10 6.93359375 10.09765625 C3.46679688 10.04882812 3.46679688 10.04882812 0 10 C0 6.7 0 3.4 0 0 Z " fill="#F2ECED" transform="translate(316,286)"/>
<path d="M0 0 C4.29 0 8.58 0 13 0 C12.67 0.66 12.34 1.32 12 2 C10.68 2 9.36 2 8 2 C8 4.64 8 7.28 8 10 C5.90250005 7.64031256 5.03094296 6.45383006 4.8125 3.25 C4.874375 2.5075 4.93625 1.765 5 1 C3.35 1 1.7 1 0 1 C0 0.67 0 0.34 0 0 Z " fill="#ECEAEA" transform="translate(302,286)"/>
<path d="M0 0 C0.33 0 0.66 0 1 0 C1.33 4.62 1.66 9.24 2 14 C1.67 13.34 1.34 12.68 1 12 C0.34 12 -0.32 12 -1 12 C-1 14.97 -1 17.94 -1 21 C-1.33 21 -1.66 21 -2 21 C-2.19456705 19.04235617 -2.38044247 17.08384679 -2.5625 15.125 C-2.66691406 14.03445313 -2.77132813 12.94390625 -2.87890625 11.8203125 C-3 9 -3 9 -2 7 C-1.34 7 -0.68 7 0 7 C0 4.69 0 2.38 0 0 Z " fill="#AFA3A1" transform="translate(376,275)"/>
<path d="M0 0 C1.5 1.375 1.5 1.375 3 3 C3 3.66 3 4.32 3 5 C-6.57 5 -16.14 5 -26 5 C-26 4.67 -26 4.34 -26 4 C-17.42 3.67 -8.84 3.34 0 3 C0 2.01 0 1.02 0 0 Z " fill="#D8D3D2" transform="translate(326,275)"/>
<path d="M0 0 C0.66 0 1.32 0 2 0 C2 0.66 2 1.32 2 2 C2.66 2 3.32 2 4 2 C4.33 5.3 4.66 8.6 5 12 C4.34 10.68 3.68 9.36 3 8 C2.34 7.67 1.68 7.34 1 7 C0.67 7.66 0.34 8.32 0 9 C0 6.03 0 3.06 0 0 Z " fill="#DFD7D5" transform="translate(375,287)"/>
<path d="M0 0 C5.28 0 10.56 0 16 0 C15.04065919 3.83736322 14.76390737 4.59660228 12 7 C11.34 6.67 10.68 6.34 10 6 C10 5.34 10 4.68 10 4 C10.99 3.34 11.98 2.68 13 2 C8.71 1.67 4.42 1.34 0 1 C0 0.67 0 0.34 0 0 Z " fill="#C6BBBA" transform="translate(262,244)"/>
<path d="M0 0 C1.70884005 1.62339805 3.37446717 3.29319053 5 5 C5 5.66 5 6.32 5 7 C0.71 7 -3.58 7 -8 7 C-8 6.67 -8 6.34 -8 6 C-5.03 6 -2.06 6 1 6 C0.67 4.02 0.34 2.04 0 0 Z " fill="#A9A3A3" transform="translate(286,272)"/>
<path d="M0 0 C0 0.99 0 1.98 0 3 C-1.45792884 3.05399736 -2.91642712 3.09279177 -4.375 3.125 C-5.18710937 3.14820313 -5.99921875 3.17140625 -6.8359375 3.1953125 C-9 3 -9 3 -11 1 C-7.26562152 0.12132271 -3.83225427 -0.08912219 0 0 Z " fill="#E1D1CF" transform="translate(295,225)"/>
<path d="M0 0 C3.96 0 7.92 0 12 0 C12 1.32 12 2.64 12 4 C10.35 4 8.7 4 7 4 C7 3.34 7 2.68 7 2 C4.69 1.67 2.38 1.34 0 1 C0 0.67 0 0.34 0 0 Z " fill="#8A807F" transform="translate(255,216)"/>
<path d="M0 0 C2.0625 0.4375 2.0625 0.4375 4 1 C4 2.32 4 3.64 4 5 C0.37 5 -3.26 5 -7 5 C-7 4.67 -7 4.34 -7 4 C-4.36 3.67 -1.72 3.34 1 3 C0.34 2.34 -0.32 1.68 -1 1 C-0.67 0.67 -0.34 0.34 0 0 Z " fill="#848281" transform="translate(324,292)"/>
<path d="M0 0 C3.63 0 7.26 0 11 0 C11 0.33 11 0.66 11 1 C4.25 3.125 4.25 3.125 2 2 C1.67 2.99 1.34 3.98 1 5 C0.67 5 0.34 5 0 5 C0 3.35 0 1.7 0 0 Z " fill="#908383" transform="translate(291,251)"/>
<path d="M0 0 C0 0.66 0 1.32 0 2 C-1.98 2.99 -1.98 2.99 -4 4 C-4 3.01 -4 2.02 -4 1 C-6.97 1 -9.94 1 -13 1 C-13 0.67 -13 0.34 -13 0 C-11.39679026 -0.19551338 -9.79237014 -0.38111983 -8.1875 -0.5625 C-7.29417969 -0.66691406 -6.40085937 -0.77132813 -5.48046875 -0.87890625 C-3 -1 -3 -1 0 0 Z " fill="#9D8B8A" transform="translate(389,265)"/>
<path d="M0 0 C0.66 0 1.32 0 2 0 C2 1.32 2 2.64 2 4 C2.66 4.33 3.32 4.66 4 5 C3.34 6.65 2.68 8.3 2 10 C1.34 9.67 0.68 9.34 0 9 C0 6.03 0 3.06 0 0 Z " fill="#ECE2DF" transform="translate(268,217)"/>
<path d="M0 0 C0.66 0 1.32 0 2 0 C1.67 2.97 1.34 5.94 1 9 C-0.32 8.34 -1.64 7.68 -3 7 C-2.690625 6.401875 -2.38125 5.80375 -2.0625 5.1875 C-0.89790296 2.91043228 -0.89790296 2.91043228 0 0 Z " fill="#FBFAF6" transform="translate(375,273)"/>
<path d="M0 0 C0.99 0 1.98 0 3 0 C3.93423645 3.01031744 4.04449911 3.86650268 3 7 C2.34 7 1.68 7 1 7 C0.67 4.69 0.34 2.38 0 0 Z " fill="#F3F6F4" transform="translate(344,286)"/>
<path d="M0 0 C-0.33 1.32 -0.66 2.64 -1 4 C-1.66 4 -2.32 4 -3 4 C-3 4.66 -3 5.32 -3 6 C-3.66 6 -4.32 6 -5 6 C-5.33 6.66 -5.66 7.32 -6 8 C-6.25 5.6875 -6.25 5.6875 -6 3 C-3.95575462 1.02389614 -2.8823175 0 0 0 Z " fill="#C9C3C2" transform="translate(383,267)"/>
<path d="M0 0 C0.99 0.33 1.98 0.66 3 1 C3.33 2.65 3.66 4.3 4 6 C3.34 6 2.68 6 2 6 C2 5.01 2 4.02 2 3 C1.01 3 0.02 3 -1 3 C-1.33 4.32 -1.66 5.64 -2 7 C-2.33 6.34 -2.66 5.68 -3 5 C-1.5625 2.375 -1.5625 2.375 0 0 Z " fill="#938D8D" transform="translate(229,219)"/>
<path d="M0 0 C1.4540625 0.0309375 1.4540625 0.0309375 2.9375 0.0625 C1.78576645 2.53050047 0.88966435 4.11033565 -1.0625 6.0625 C-2.0525 4.4125 -3.0425 2.7625 -4.0625 1.0625 C-3.0625 0.0625 -3.0625 0.0625 0 0 Z " fill="#B0AEAE" transform="translate(185.0625,207.9375)"/>
<path d="M0 0 C2.475 0.99 2.475 0.99 5 2 C4.67 2.66 4.34 3.32 4 4 C1.36 4 -1.28 4 -4 4 C-2.68 2.68 -1.36 1.36 0 0 Z " fill="#F5F4F4" transform="translate(321,292)"/>
<path d="M0 0 C0.66 0.33 1.32 0.66 2 1 C2 1.66 2 2.32 2 3 C2.66 3 3.32 3 4 3 C4 4.32 4 5.64 4 7 C3.34 7 2.68 7 2 7 C0.61767557 5.37373596 -0.71937515 3.7074998 -2 2 C-1.34 2 -0.68 2 0 2 C0 1.34 0 0.68 0 0 Z " fill="#C3B7B6" transform="translate(325,241)"/>
<path d="M0 0 C0.99 0.33 1.98 0.66 3 1 C3 1.66 3 2.32 3 3 C3.66 3.33 4.32 3.66 5 4 C4.34 4 3.68 4 3 4 C3 4.66 3 5.32 3 6 C3.99 5.67 4.98 5.34 6 5 C6 5.66 6 6.32 6 7 C5.01 7.33 4.02 7.66 3 8 C2.67 6.68 2.34 5.36 2 4 C1.34 4 0.68 4 0 4 C0 2.68 0 1.36 0 0 Z " fill="#939291" transform="translate(249,258)"/>
<path d="M0 0 C1.52299523 2.93720508 2.80100302 5.9168649 4 9 C2.68 8.67 1.36 8.34 0 8 C0 5.36 0 2.72 0 0 Z " fill="#9E9C9C" transform="translate(306,288)"/>
</svg>
